<?xml version="1.0" encoding="utf-8"?>
<!-- Generator: Adobe Illustrator 24.3.0, SVG Export Plug-In . SVG Version: 6.00 Build 0)  -->
<svg version="1.1" id="Layer_1" xmlns="http://www.w3.org/2000/svg" xmlns:xlink="http://www.w3.org/1999/xlink" x="0px" y="0px"
	 viewBox="0 0 80 80" style="enable-background:new 0 0 80 80;" xml:space="preserve">
<style type="text/css">
	.st0{fill:#E8E8DE;}
</style>
<g id="Layer_1_1_" transform="translate(-193.894 -189.827)">
	<g id="Group_1" transform="translate(193.894 189.827)">
		<path id="Path_1" class="st0" d="M77.5,40C77.5,19.3,60.7,2.5,40,2.5C19.3,2.5,2.5,19.3,2.5,40c0,20.7,16.8,37.5,37.5,37.5
			c9.9,0,19.5-3.9,26.5-11C73.5,59.5,77.5,49.9,77.5,40L77.5,40z M68.3,11.7c15.6,15.6,15.6,40.9,0,56.6s-40.9,15.6-56.6,0
			s-15.6-40.9,0-56.6C19.2,4.2,29.4,0,40,0C50.6,0,60.8,4.2,68.3,11.7z"/>
		<path id="Path_2" class="st0" d="M16.6,69.9c-0.4,0.6-1.2,0.6-1.8,0.2c0,0,0,0,0,0c-0.5-0.4-0.6-1.3-0.2-1.8l26.9-33.9
			c0.4-0.5,1.2-0.6,1.8-0.2c0,0,0,0,0,0c0.6,0.4,0.6,1.3,0.2,1.8L16.6,69.9z"/>
		<path id="Path_3" class="st0" d="M65.4,68.2c0.4,0.6,0.4,1.4-0.2,1.8c-0.5,0.4-1.3,0.4-1.8-0.2c0,0,0,0,0,0L34.9,34
			c-0.4-0.6-0.4-1.4,0.2-1.8c0.5-0.4,1.3-0.4,1.8,0.2c0,0,0,0,0,0L65.4,68.2z"/>
		<path id="Path_4" class="st0" d="M38.7,38.2c0-0.7,0.5-1.3,1.2-1.3s1.3,0.5,1.3,1.2c0,0,0,0,0,0.1v40.5c0,0.7-0.5,1.3-1.2,1.3
			s-1.3-0.5-1.3-1.2c0,0,0,0,0-0.1V38.2z"/>
		<path id="Path_5" class="st0" d="M57.5,49.8c0-0.7,0.6-1.3,1.3-1.3s1.3,0.6,1.3,1.3V62c0,0.7-0.6,1.3-1.3,1.3s-1.3-0.6-1.3-1.3
			V49.8z"/>
		<path id="Path_6" class="st0" d="M63.8,45.3c0,1.3-0.5,2.6-1.5,3.6c-1.9,2-5.1,2-7.1,0.1c0,0,0,0-0.1-0.1c-0.9-1-1.5-2.3-1.5-3.6
			c0.2-3.6,0.8-7.1,1.7-10.6c0.7-2.8,1.8-5,3.4-5s2.6,2.2,3.4,5C63,38.2,63.5,41.7,63.8,45.3L63.8,45.3z M60.5,47.1
			c0.5-0.5,0.7-1.1,0.7-1.8c-0.2-3.3-0.8-6.7-1.6-9.9c-0.2-1-0.5-2.1-0.9-3.1c-0.4,1-0.7,2.1-0.9,3.1c-0.8,3.3-1.4,6.6-1.6,9.9
			c0,0.7,0.3,1.3,0.7,1.8C57.9,48,59.5,48,60.5,47.1C60.5,47.1,60.5,47.1,60.5,47.1L60.5,47.1z"/>
		<path id="Path_7" class="st0" d="M18.2,52.2c0-0.7,0.6-1.3,1.3-1.3c0.7,0,1.3,0.6,1.3,1.3c0,0,0,0,0,0v12.2c0,0.7-0.6,1.3-1.3,1.3
			c-0.7,0-1.3-0.6-1.3-1.3c0,0,0,0,0,0V52.2z"/>
		<path id="Path_8" class="st0" d="M24.5,47.6c0,1.3-0.5,2.6-1.5,3.6c-1.9,2-5.1,2-7.1,0.1c0,0,0,0-0.1-0.1c-0.9-1-1.5-2.3-1.5-3.6
			c0.2-3.6,0.8-7.1,1.7-10.6c0.7-2.8,1.8-5,3.4-5s2.6,2.2,3.4,5C23.7,40.5,24.3,44.1,24.5,47.6L24.5,47.6z M21.2,49.4
			c0.5-0.5,0.7-1.1,0.7-1.8c-0.2-3.3-0.8-6.7-1.6-9.9c-0.2-1-0.5-2.1-0.9-3.1c-0.4,1-0.7,2.1-0.9,3.1c-0.8,3.3-1.3,6.6-1.6,9.9
			c0,0.7,0.3,1.3,0.7,1.8C18.7,50.4,20.2,50.4,21.2,49.4C21.2,49.4,21.2,49.4,21.2,49.4L21.2,49.4z"/>
		<path id="Path_9" class="st0" d="M2.1,43.7c-0.5,0.5-1.3,0.5-1.8,0c0,0,0,0,0,0c-0.5-0.5-0.5-1.3,0.1-1.8l29.4-28.1
			c0.4-0.4,1.1-0.5,1.6-0.1l15.8,11.5l8.3-6.8c0.5-0.4,1.2-0.4,1.6,0.1l22.3,18.7c0.5,0.5,0.6,1.3,0.2,1.8c-0.4,0.5-1.2,0.6-1.8,0.2
			c0,0,0,0,0,0L56.3,21L48,27.8c-0.4,0.4-1.1,0.4-1.5,0L30.8,16.4L2.1,43.7z"/>
		<path id="Path_10" class="st0" d="M10,15.9c-0.6-0.4-0.8-1.2-0.4-1.8c0.4-0.6,1.1-0.8,1.7-0.4c0,0,0,0,0,0l12.1,7.7
			c0.6,0.4,0.8,1.2,0.4,1.8c-0.4,0.6-1.1,0.8-1.7,0.4c0,0,0,0,0,0L10,15.9z"/>
		<path id="Path_11" class="st0" d="M29.5,15.6c-0.5-0.5-0.4-1.4,0.1-1.8c0.5-0.5,1.3-0.4,1.8,0.1c0,0,0,0,0,0l13.8,16l18.8-5.1
			c0.7-0.2,1.4,0.2,1.6,0.9c0,0,0,0,0,0c0.2,0.7-0.2,1.4-0.9,1.6l-19.5,5.3c-0.5,0.2-1,0-1.4-0.4L29.5,15.6z"/>
	</g>
</g>
</svg>
