<svg xmlns="http://www.w3.org/2000/svg" width="31.178" height="27.165" viewBox="0 0 31.178 27.165">
  <g id="Group_6555" data-name="Group 6555" transform="translate(-220.717 -194.723)">
    <path id="Path_3" data-name="Path 3" d="M228.227,210.245a4.981,4.981,0,0,0-1.972.431c.372-5.124,3.14-9.028,7.712-11.648l-2.012-3.641c-6.711,3.418-10.739,9.583-10.739,17.012,0,5.644,2.835,8.988,6.711,8.988a5.374,5.374,0,0,0,5.518-5.72A5.1,5.1,0,0,0,228.227,210.245Z" transform="translate(0 0)" fill="none" stroke="#f45d56" stroke-width="1"/>
    <path id="Path_4" data-name="Path 4" d="M334.173,215.668a5.374,5.374,0,0,1-5.518,5.72c-3.876,0-6.711-3.344-6.711-8.988,0-7.429,4.028-13.595,10.737-17.012l2.014,3.641c-4.572,2.62-7.34,6.524-7.712,11.648a4.982,4.982,0,0,1,1.972-.431A5.1,5.1,0,0,1,334.173,215.668Z" transform="translate(-83.476 0)" fill="none" stroke="#f45d56" stroke-miterlimit="10" stroke-width="1"/>
  </g>
</svg>
